<svg xmlns="http://www.w3.org/2000/svg" xmlns:xlink="http://www.w3.org/1999/xlink" viewBox="0 0 498.47 163.55">
  <defs>
    <linearGradient id="a" x1="206.05" y1="32.44" x2="206.05" y2="131.99" gradientUnits="userSpaceOnUse">
      <stop offset="0" stop-color="#ff2bb6"/>
      <stop offset="1" stop-color="#ea099c"/>
    </linearGradient>
    <linearGradient id="b" x1="332.12" y1="32.44" x2="332.12" y2="130.93" xlink:href="#a"/>
    <linearGradient id="c" x1="457.18" y1="32.44" x2="457.18" y2="163.55" xlink:href="#a"/>
  </defs>
  <g data-name="Layer 2">
    <path d="M54.9 60.12H38.63v70.81H8.93V60.12H0V37.31h8.93v-8.49a31.16 31.16 0 0 1 3.23-13.75 25.89 25.89 0 0 1 10-10.87Q29 0 39.16 0H54.9v25H44.56q-5.93 0-5.93 6v6.28H54.9Zm96.22 22.1v4.5a125.45 125.45 0 0 1-1.59 21.8 26.89 26.89 0 0 1-7.42 14.63q-9 8.83-23.52 8.84-13.7 0-21.75-8.14v38.55h-29.7V33.51H96v8q9-9 22.46-9 14.67 0 23.69 8.84a26.89 26.89 0 0 1 7.42 14.64 125.25 125.25 0 0 1 1.59 21.79Zm-29.7 0a78.83 78.83 0 0 0-.84-12.69 13.9 13.9 0 0 0-3.45-7.65c-1.74-1.76-4.4-2.65-8-2.65q-7.6 0-9.94 5.48t-2.35 17.51a78.78 78.78 0 0 0 .84 12.68 13.9 13.9 0 0 0 3.45 7.65q2.61 2.65 8 2.65c3.6 0 6.26-.88 8-2.65a13.9 13.9 0 0 0 3.45-7.65 78.78 78.78 0 0 0 .84-12.68Z" style="fill:#dbdbdb"/>
    <path d="M248 82.22q0 14.4-2.3 22.58a35.84 35.84 0 0 1-8.31 14.72Q225.67 132 206.05 132t-31.3-12.47a36.15 36.15 0 0 1-6.36-9.28A41.08 41.08 0 0 1 165 98.7a114.51 114.51 0 0 1-1-16.48 113.88 113.88 0 0 1 1-16.4 40.6 40.6 0 0 1 3.36-11.5 39.81 39.81 0 0 1 6.36-9.41A41.23 41.23 0 0 1 187.57 36q7.69-3.54 18.48-3.54t18.52 3.5a39.78 39.78 0 0 1 12.86 9 35.79 35.79 0 0 1 8.31 14.76q2.26 8.17 2.26 22.5Zm-29.7 0a78.3 78.3 0 0 0-.84-13.13A12.48 12.48 0 0 0 214 62c-1.77-1.82-4.42-2.74-8-2.74s-6.13.92-8 2.74a13.7 13.7 0 0 0-3.49 7.56 77.8 77.8 0 0 0-.84 12.69 76 76 0 0 0 .84 12.59 14.55 14.55 0 0 0 3.49 7.65q2.74 2.75 8 2.74t8-2.7a13.56 13.56 0 0 0 3.49-7.24 76.77 76.77 0 0 0 .85-13.07Z" style="fill:url(#a)"/>
    <path d="M400.55 130.93h-29.71V72.67q0-7.51-3.84-10.48a13.1 13.1 0 0 0-8.09-3 12.91 12.91 0 0 0-8.09 3q-3.84 3-3.85 10.43v58.26h-29.7V72.67q0-7.51-3.84-10.48a13.1 13.1 0 0 0-8.09-3 12.91 12.91 0 0 0-8.09 3q-3.86 3-3.85 10.43v58.26h-29.7V33.51h29v8a29.41 29.41 0 0 1 10.47-6.63 33.94 33.94 0 0 1 12.16-2.39q14.58 0 23.69 10.35a42.3 42.3 0 0 1 12.64-7.91 41.27 41.27 0 0 1 14.85-2.44 40.14 40.14 0 0 1 13.31 2.21 25.06 25.06 0 0 1 10 6.1 33.24 33.24 0 0 1 8.31 12.6 45.66 45.66 0 0 1 2.39 15.25Z" style="fill:url(#b)"/>
    <path d="M498.47 123.85a40.37 40.37 0 0 1-3.09 15.83 36.12 36.12 0 0 1-8.93 12.69 40.54 40.54 0 0 1-14.1 8.26 53.36 53.36 0 0 1-17.91 2.92A81.68 81.68 0 0 1 440 162.4a43.56 43.56 0 0 1-11.81-3.94 37.83 37.83 0 0 1-10.21-7.64l18.39-18.48a19.5 19.5 0 0 0 7.47 4.73 28.07 28.07 0 0 0 9.24 1.46q8.4 0 12.07-4.46a15.92 15.92 0 0 0 3.67-10.39v-7.07q-8.06 8.13-21 8.13-14.24 0-22.89-8.66a26.32 26.32 0 0 1-6.19-9.42 39.88 39.88 0 0 1-2.39-11.09q-.43-5.92-.44-17 0-8.49.22-13a68.77 68.77 0 0 1 1.11-9.24 32.44 32.44 0 0 1 2.64-8.33 25.91 25.91 0 0 1 5-6.89A28.35 28.35 0 0 1 435 34.74a36.23 36.23 0 0 1 13-2.3 30.36 30.36 0 0 1 12.2 2.21 30 30 0 0 1 9.46 6.81v-8h28.82Zm-29.7-45.26a60.33 60.33 0 0 0-.71-10.08 12.22 12.22 0 0 0-3.27-6.67q-2.57-2.61-7.61-2.61t-7.6 2.61a12.2 12.2 0 0 0-3.27 6.63 60.1 60.1 0 0 0-.71 10.12 60.33 60.33 0 0 0 .71 10.08 12.18 12.18 0 0 0 3.27 6.67q2.57 2.61 7.6 2.61t7.61-2.61a12.13 12.13 0 0 0 3.27-6.63 60.1 60.1 0 0 0 .71-10.12Z" style="fill:url(#c)"/>
  </g>
</svg>
